<svg xmlns="http://www.w3.org/2000/svg" width="600" height="600" viewBox="0 0 600 600" version="1.1"><path d="" stroke="none" fill="#64646b" fill-rule="evenodd"/><path d="M 508 47.051 C 506.075 47.475, 503.158 48.115, 501.518 48.473 C 498.295 49.176, 492.489 52.393, 489.873 54.925 C 488.978 55.791, 487.403 57.213, 486.373 58.084 C 485.343 58.955, 478.650 65.864, 471.500 73.437 C 464.350 81.010, 453.550 92.243, 447.500 98.398 C 441.450 104.554, 429.975 116.486, 422 124.915 C 414.025 133.344, 403.900 143.960, 399.500 148.505 C 390.648 157.651, 376.191 172.737, 359.638 190.104 C 353.663 196.372, 341.871 208.700, 333.434 217.500 C 324.996 226.300, 315.211 236.537, 311.690 240.250 C 308.168 243.963, 304.943 247, 304.523 247 C 303.807 247, 286.351 229.341, 274.866 217 C 270.193 211.978, 244.929 185.522, 229 168.971 C 225.425 165.256, 215.300 154.643, 206.500 145.386 C 197.700 136.129, 185.550 123.505, 179.500 117.333 C 173.450 111.160, 162.650 99.900, 155.500 92.311 C 148.350 84.721, 136.384 72.361, 128.909 64.845 C 115.816 51.680, 115.064 51.100, 108.409 49.044 C 99.033 46.147, 88.544 46.393, 80.268 49.704 C 68.904 54.250, 57.951 67.451, 57.839 76.733 C 57.834 77.155, 57.470 77.950, 57.029 78.500 C 54.785 81.304, 58.492 104, 61.195 104 C 61.821 104, 62.060 104.273, 61.727 104.607 C 61.393 104.940, 61.656 105.876, 62.310 106.687 C 66.005 111.263, 71.460 117.251, 79 125.008 C 83.675 129.818, 93.800 140.399, 101.500 148.521 C 109.200 156.643, 119.100 167.005, 123.500 171.547 C 127.900 176.090, 138.025 186.676, 146 195.073 C 160.582 210.426, 175.254 225.711, 191 241.957 C 195.675 246.780, 205.800 257.379, 213.500 265.511 C 221.200 273.643, 232.557 285.518, 238.738 291.898 C 244.919 298.279, 249.976 303.725, 249.975 304 C 249.974 304.770, 239.484 315.858, 197.500 359.463 C 173.332 384.565, 166.195 392.023, 153 405.962 C 145.025 414.387, 134.900 424.970, 130.500 429.481 C 126.100 433.991, 116.200 444.329, 108.500 452.454 C 90.225 471.737, 81.756 480.594, 71.475 491.174 C 63.809 499.063, 60.260 504.489, 57.529 512.500 C 57.154 513.600, 56.643 517.454, 56.393 521.063 C 55.867 528.658, 59.039 539.741, 63.360 545.406 C 66.250 549.194, 75.992 557.614, 76.015 556.343 C 76.024 555.879, 76.394 556.073, 76.839 556.773 C 77.283 557.474, 78.597 558.230, 79.759 558.454 C 80.920 558.677, 82.912 559.431, 84.185 560.129 C 85.594 560.901, 90.021 561.378, 95.500 561.348 C 107.582 561.281, 115.187 557.944, 124.207 548.750 C 133.791 538.981, 152.037 519.951, 166.500 504.638 C 173.650 497.068, 182.650 487.590, 186.500 483.577 C 190.350 479.563, 198.900 470.653, 205.500 463.777 C 212.100 456.901, 224.700 443.761, 233.500 434.578 C 242.300 425.395, 253.100 414.152, 257.500 409.594 C 265.136 401.682, 277.561 388.733, 295.941 369.530 L 304.382 360.711 319.941 376.833 C 328.498 385.700, 341.350 399.131, 348.500 406.681 C 362.117 421.058, 376.267 435.816, 396.666 456.916 C 403.358 463.837, 411.008 471.809, 413.666 474.630 C 416.325 477.452, 425.925 487.534, 435 497.034 C 444.075 506.535, 456.450 519.508, 462.500 525.862 C 487.502 552.122, 493.859 557.630, 501.500 559.656 C 509.885 561.879, 518.689 562.117, 523.658 560.253 C 525.221 559.667, 527.400 558.852, 528.500 558.443 C 529.600 558.033, 531.059 557.581, 531.743 557.438 C 535.138 556.730, 545.268 546.880, 546.458 543.131 C 546.830 541.959, 547.554 541, 548.067 541 C 548.580 541, 549 540.190, 549 539.200 C 549 538.210, 549.540 536.860, 550.200 536.200 C 550.860 535.540, 551.030 535, 550.578 535 C 550.125 535, 550.214 534.438, 550.774 533.750 C 551.335 533.063, 552.055 529.887, 552.374 526.694 C 553.476 515.679, 549.310 503.799, 541.364 495.292 C 531.479 484.708, 504.167 456.253, 493.500 445.423 C 487.450 439.281, 476.650 428.048, 469.500 420.461 C 462.350 412.874, 452.992 403.029, 448.704 398.583 C 444.416 394.137, 434.741 383.975, 427.205 376 C 419.668 368.025, 409.677 357.612, 405.001 352.859 C 400.325 348.106, 390.650 337.998, 383.500 330.395 C 376.350 322.792, 367.913 314.039, 364.750 310.944 C 361.587 307.848, 359 304.839, 359 304.257 C 359 303.674, 363.163 298.916, 368.250 293.682 C 384.439 277.030, 399.083 261.793, 414 246.080 C 421.975 237.680, 432.100 227.105, 436.500 222.581 C 440.900 218.057, 450.770 207.735, 458.433 199.643 C 466.095 191.551, 476.220 180.922, 480.933 176.023 C 485.645 171.123, 495.575 160.798, 503 153.077 C 510.425 145.357, 520.550 134.856, 525.500 129.742 C 542.526 112.152, 546.090 107.854, 549.200 101.155 C 551.814 95.528, 552.300 93.264, 552.350 86.500 C 552.417 77.402, 550.240 69.627, 546.320 64.969 C 544.946 63.336, 544.165 62, 544.584 62 C 545.003 62, 543.194 60.024, 540.563 57.608 C 534.633 52.164, 526.262 47.976, 520.145 47.392 C 517.590 47.148, 514.600 46.799, 513.500 46.615 C 512.400 46.431, 509.925 46.627, 508 47.051" stroke="none" fill="#5c646c" fill-rule="evenodd"/></svg>