<svg xmlns="http://www.w3.org/2000/svg" width="50" height="50" viewBox="0 0 512 512" version="1.1"><path d="" stroke="none" fill="#080404" fill-rule="evenodd"/><path d="M 70.158 35.122 C 57.194 37.277, 41.938 45.846, 32.448 56.303 C 26.291 63.086, 19.109 76.758, 16.846 86 C 14.880 94.033, 14.862 318.613, 16.827 327.500 C 17.557 330.800, 20.190 337.735, 22.678 342.911 C 32.293 362.914, 52.348 376.895, 75.250 379.561 L 81 380.230 81 428.222 C 81 466.207, 81.261 476.113, 82.250 475.730 C 82.938 475.464, 114.282 453.815, 151.905 427.623 L 220.311 380 327.698 380 C 447.704 380, 443.545 380.222, 458.500 373.009 C 472.103 366.448, 482.176 356.394, 489.068 342.500 C 496.243 328.034, 495.965 333.494, 495.965 207 C 495.965 80.497, 496.244 85.960, 489.064 71.500 C 482.053 57.380, 472.377 47.727, 458.500 41.006 C 443.107 33.552, 455.923 33.986, 255.292 34.117 C 155.845 34.182, 73.113 34.631, 70.158 35.122 M 72.033 64.593 C 57.802 68.438, 47.197 80.417, 44.901 95.239 C 44.304 99.095, 44.051 143.745, 44.244 211.500 C 44.495 299.839, 44.818 322.198, 45.883 325.045 C 48.149 331.101, 54.277 339.275, 59.500 343.211 C 67.803 349.468, 71.240 350.272, 91.737 350.758 L 109.975 351.190 110.237 386.178 L 110.500 421.166 160.938 386.083 L 211.376 351 321.639 351 C 399.470 351, 433.460 350.669, 437.201 349.876 C 448.977 347.377, 458.127 340.088, 463.405 329 L 466.500 322.500 466.763 208.546 C 467.003 104.398, 466.882 94.158, 465.357 89.546 C 461.893 79.065, 455.146 71.464, 445 66.610 L 438.500 63.500 258 63.308 C 101.497 63.141, 76.773 63.312, 72.033 64.593 M 144 147.496 L 144 162 256.027 162 L 368.055 162 367.777 147.750 L 367.500 133.500 255.750 133.246 L 144 132.991 144 147.496 M 144 207.496 L 144 222 256.027 222 L 368.055 222 367.777 207.750 L 367.500 193.500 255.750 193.246 L 144 192.991 144 207.496 M 144 267.496 L 144 282 256.027 282 L 368.055 282 367.777 267.750 L 367.500 253.500 255.750 253.246 L 144 252.991 144 267.496" stroke="none" fill="#040404" fill-rule="evenodd"/></svg>