<svg xmlns="http://www.w3.org/2000/svg" width="50" height="35" viewBox="0 0 900 512" version="1.1"><path d="M 244 193.555 C 220.634 198.573, 200.423 218.970, 195.499 242.500 C 188.766 274.680, 207.774 307.276, 239 317.097 C 268.156 326.268, 301.132 312.304, 314.798 285 C 327.573 259.474, 323.057 231.139, 303 210.993 C 287.313 195.235, 265.792 188.875, 244 193.555 M 434.216 194.019 C 411.585 199.948, 393.785 217.881, 387.972 240.609 C 377.426 281.845, 410.852 322.174, 453.500 319.670 C 470.143 318.693, 483.337 312.674, 495.508 300.506 C 520.234 275.785, 520.035 235.914, 495.061 210.939 C 478.987 194.865, 455.701 188.390, 434.216 194.019 M 628 193.555 C 593.650 200.932, 571.247 237.275, 579.986 271.444 C 584.129 287.643, 595.682 302.977, 610 311.283 C 634.803 325.670, 666.194 321.664, 686.592 301.508 C 698.478 289.762, 704.606 276.259, 705.642 259.528 C 708.243 217.530, 669.530 184.635, 628 193.555" stroke="none" fill="#040404" fill-rule="evenodd"/><path d="M -0 256.001 L -0 512.002 450.250 511.751 L 900.500 511.500 900.752 255.750 L 901.004 0 450.502 0 L 0 0 -0 256.001 M 0.492 256.500 C 0.492 397.300, 0.608 454.751, 0.750 384.170 C 0.892 313.588, 0.892 198.388, 0.750 128.170 C 0.608 57.951, 0.492 115.700, 0.492 256.500 M 244 193.555 C 220.634 198.573, 200.423 218.970, 195.499 242.500 C 188.766 274.680, 207.774 307.276, 239 317.097 C 268.156 326.268, 301.132 312.304, 314.798 285 C 327.573 259.474, 323.057 231.139, 303 210.993 C 287.313 195.235, 265.792 188.875, 244 193.555 M 434.216 194.019 C 411.585 199.948, 393.785 217.881, 387.972 240.609 C 377.426 281.845, 410.852 322.174, 453.500 319.670 C 470.143 318.693, 483.337 312.674, 495.508 300.506 C 520.234 275.785, 520.035 235.914, 495.061 210.939 C 478.987 194.865, 455.701 188.390, 434.216 194.019 M 628 193.555 C 593.650 200.932, 571.247 237.275, 579.986 271.444 C 584.129 287.643, 595.682 302.977, 610 311.283 C 634.803 325.670, 666.194 321.664, 686.592 301.508 C 698.478 289.762, 704.606 276.259, 705.642 259.528 C 708.243 217.530, 669.530 184.635, 628 193.555" stroke="none" fill="#ffffff" fill-rule="evenodd"/></svg>