<svg xmlns="http://www.w3.org/2000/svg" width="50" height="50" viewBox="0 0 512 512" version="1.1"><path d="" stroke="none" fill="#080404" fill-rule="evenodd"/><path d="M 274.937 77.366 C 268.995 78.968, 260.036 84.059, 257.806 87.101 C 256.622 88.717, 254.050 100.438, 249.929 123 C 243.993 155.497, 243.665 156.799, 239.001 166.500 C 236.357 172, 231.337 180.550, 227.846 185.500 C 221.651 194.285, 193.430 223.766, 185.812 229.410 L 182.124 232.143 178.312 227.915 C 171.088 219.903, 172.058 220.044, 124 220.044 C 76.593 220.044, 77.083 219.979, 70.301 227.128 C 63.658 234.129, 64 228.660, 64 328 C 64 427.340, 63.658 421.871, 70.301 428.872 C 77.083 436.021, 76.593 435.956, 124 435.956 C 162.983 435.956, 166.831 435.805, 170.500 434.134 C 175.945 431.655, 181.748 424.970, 183.214 419.490 C 183.874 417.020, 184.806 415, 185.283 415 C 185.761 415, 193.655 418.550, 202.826 422.889 C 221.633 431.786, 226.527 433.541, 236.500 434.963 C 245.882 436.300, 356.480 436.302, 365 434.965 C 378.331 432.873, 391.299 423.742, 396.988 412.442 C 398.918 408.610, 399.556 405.581, 399.830 398.959 L 400.183 390.418 405.564 387.601 C 411.713 384.381, 417.833 378.180, 421.108 371.849 C 424.194 365.885, 424.941 352.174, 422.575 344.940 L 420.907 339.841 427.252 333.116 C 435.598 324.269, 438.387 318.487, 438.451 309.899 C 438.493 304.268, 437.986 302.294, 435 296.465 L 431.500 289.631 436.646 284.377 C 439.477 281.487, 443.077 276.508, 444.646 273.311 C 447.207 268.097, 447.500 266.473, 447.500 257.500 C 447.500 248.024, 447.322 247.172, 444.101 241.232 C 439.926 233.533, 434.610 228.599, 426.605 224.993 C 416.091 220.256, 412.924 220, 364.826 220 L 319.750 220 320.359 217.250 C 327.297 185.897, 328.386 175.905, 327.738 149.557 C 326.688 106.837, 317.998 83.550, 300.685 77.056 C 296.906 75.638, 280.615 75.834, 274.937 77.366 M 283.739 100.959 C 281.670 101.361, 279.838 101.871, 279.666 102.094 C 279.495 102.317, 276.955 115.550, 274.022 131.500 C 268.274 162.760, 266.204 169.300, 256.919 185.527 C 245.529 205.434, 221.141 232.304, 196.247 252.374 L 184 262.248 184.001 325.374 L 184.003 388.500 189.879 390.227 C 193.111 391.176, 203.376 395.548, 212.691 399.941 C 222.005 404.334, 232.280 408.619, 235.523 409.464 C 240.512 410.764, 250.587 410.996, 300.960 410.976 C 333.707 410.963, 362.265 410.543, 364.423 410.043 C 369.163 408.943, 373.067 406.202, 374.737 402.802 C 375.711 400.818, 375.722 398.033, 374.789 389.688 C 373.374 377.020, 373.609 376.570, 383.797 372.492 C 392.064 369.182, 395.587 366.700, 397.633 362.742 C 399.729 358.689, 398.936 351.835, 395.479 344.132 C 393.632 340.018, 392.962 337.029, 393.185 333.909 C 393.520 329.224, 393.445 329.296, 406.163 321.500 C 416.104 315.406, 416.445 304.880, 407.118 292.004 C 402.086 285.058, 403.245 281.558, 412.714 275.096 C 419.485 270.476, 422.500 265.834, 422.500 260.029 C 422.500 253.785, 420.025 250.372, 413.165 247.156 L 407.500 244.500 347.500 244 C 282.754 243.460, 284.401 243.610, 281.510 238.020 C 277.209 229.702, 282.771 220, 291.841 220 C 294.664 220, 294.863 219.692, 296.842 212.250 C 302.551 190.781, 303.501 182.877, 303.485 157 C 303.468 131.255, 302.359 121.661, 297.946 109.107 C 294.788 100.122, 293.087 99.146, 283.739 100.959 M 88 328 L 88 412 124 412 L 160 412 160 328 L 160 244 124 244 L 88 244 88 328" stroke="none" fill="#040404" fill-rule="evenodd"/></svg>