<?xml version="1.0" standalone="no"?>
<!DOCTYPE svg PUBLIC "-//W3C//DTD SVG 20010904//EN"
 "http://www.w3.org/TR/2001/REC-SVG-20010904/DTD/svg10.dtd">
<svg version="1.0" xmlns="http://www.w3.org/2000/svg"
 width="512.000000pt" height="512.000000pt" viewBox="0 0 512.000000 512.000000"
 preserveAspectRatio="xMidYMid meet">

<g transform="translate(0.000000,512.000000) scale(0.100000,-0.100000)"
fill="#000000" stroke="none">
<path d="M1105 4791 c-138 -34 -279 -155 -333 -287 -29 -69 -38 -120 -67 -369
-14 -121 -28 -232 -31 -247 l-6 -28 -121 0 c-138 -1 -185 -9 -266 -48 -79 -38
-183 -143 -221 -224 -62 -132 -60 -77 -60 -1518 0 -1424 -1 -1390 54 -1499 34
-66 128 -162 191 -194 121 -61 -12 -57 1938 -57 1585 0 1786 2 1840 16 148 38
276 139 343 270 37 73 39 82 42 185 l4 108 57 17 c31 8 86 32 123 51 117 61
204 192 233 349 8 43 78 647 157 1342 135 1202 141 1266 130 1334 -32 188
-173 346 -362 406 -51 17 -3464 402 -3546 401 -38 -1 -82 -4 -99 -8z m1848
-430 c1164 -135 1738 -205 1763 -216 75 -31 137 -111 149 -192 7 -41 -289
-2625 -305 -2667 -19 -50 -103 -126 -140 -126 -7 0 -10 348 -10 1130 0 1119 0
1131 -21 1193 -61 181 -199 312 -378 358 -71 18 -133 19 -1583 19 l-1509 0 6
43 c3 23 17 138 30 255 28 235 42 281 109 339 35 32 95 56 152 62 6 0 788 -89
1737 -198z m1029 -771 c65 -24 128 -85 160 -155 23 -50 23 -51 26 -591 l3
-541 -692 -403 c-380 -222 -707 -409 -727 -416 -21 -7 -69 -13 -109 -14 -112
0 -144 21 -539 370 -190 168 -369 322 -399 342 -186 125 -424 124 -615 -2 -30
-20 -229 -163 -442 -318 -214 -155 -390 -282 -393 -282 -3 0 -5 407 -5 904 0
1007 -3 964 68 1047 20 23 54 50 76 60 39 18 112 19 1788 19 1720 0 1748 0
1800 -20z m-2462 -1588 c25 -12 205 -162 408 -341 199 -176 385 -334 412 -351
120 -77 307 -110 437 -77 88 23 129 45 787 426 324 188 593 341 597 341 13 0
11 -1178 -2 -1239 -12 -59 -70 -130 -133 -164 l-41 -22 -1775 -3 c-1283 -2
-1786 0 -1813 8 -51 15 -119 84 -135 136 -8 28 -12 122 -12 295 l1 254 416
305 c593 435 584 429 633 445 63 21 164 15 220 -13z"/>
<path d="M2473 3206 c-259 -63 -439 -331 -395 -588 33 -197 183 -366 372 -422
66 -20 206 -21 275 -2 176 47 324 195 371 371 19 68 18 209 -2 276 -37 128
-146 259 -265 320 -111 55 -243 72 -356 45z m210 -252 c185 -63 241 -309 102
-449 -139 -139 -386 -82 -449 102 -74 215 132 421 347 347z"/>
</g>
</svg>
