<svg xmlns="http://www.w3.org/2000/svg" width="1280" height="1280" viewBox="0 0 1280 1280" version="1.1"><path d="M 324.994 384.931 C 318.142 387.024, 313.759 390.640, 310.367 397 C 308.561 400.385, 308.500 407.452, 308.500 612.500 L 308.500 824.500 310.721 828.653 C 313.448 833.753, 318.852 838.339, 323.922 839.859 C 326.722 840.697, 380.831 841, 527.977 841 L 728.223 841 727.522 844.750 C 727.137 846.813, 723.292 863.350, 718.977 881.500 C 714.663 899.650, 707.953 927.887, 704.066 944.248 C 696.732 975.124, 695.917 980.856, 698.548 983.040 C 700.804 984.912, 704.837 982.724, 722.500 970.043 C 730.750 964.120, 774.540 932.662, 819.811 900.137 L 902.122 841 927.195 841 C 943.090 841, 953.663 840.582, 956.078 839.859 C 961.148 838.339, 966.552 833.753, 969.279 828.653 L 971.500 824.500 971.500 612.500 C 971.500 407.452, 971.439 400.385, 969.633 397 C 967.010 392.083, 964.135 389.147, 959.500 386.653 L 955.500 384.500 641.500 384.333 C 468.800 384.241, 326.372 384.510, 324.994 384.931 M 406.400 456.400 L 403 459.800 403 476.384 L 403 492.968 405.918 496.234 L 408.836 499.500 640 499.500 L 871.164 499.500 874.082 496.234 L 877 492.968 877 476.384 L 877 459.800 873.600 456.400 L 870.200 453 640 453 L 409.800 453 406.400 456.400 M 409.378 549.437 C 403.515 551.989, 403 553.751, 403 571.272 C 403 588.570, 403.749 591.653, 408.472 593.805 C 412.278 595.540, 867.722 595.540, 871.528 593.805 C 876.251 591.653, 877 588.570, 877 571.272 C 877 553.628, 876.491 551.939, 870.401 549.394 C 865.477 547.337, 414.108 547.379, 409.378 549.437 M 406.077 647.077 L 403 650.154 403 667.154 L 403 684.154 405.923 687.077 L 408.846 690 640 690 L 871.154 690 874.077 687.077 L 877 684.154 877 667.154 L 877 650.154 873.923 647.077 L 870.846 644 640 644 L 409.154 644 406.077 647.077" stroke="none" fill="#fbfbfb" fill-rule="evenodd"/><path d="M 588.176 1.545 C 504.763 8.523, 429.206 29.626, 355 66.669 C 288.257 99.987, 233.514 139.898, 181.359 193.263 C 88.709 288.064, 27.110 411.136, 7.065 541.500 C -1.305 595.938, -2.445 660.248, 3.973 716 C 10.079 769.047, 25.277 828.619, 45.301 878 C 135.031 1099.275, 336.661 1251.846, 572.500 1276.924 C 602.933 1280.160, 657.138 1281.160, 684.696 1278.993 C 772.963 1272.055, 850.606 1250.735, 927.201 1212.406 C 1079.193 1136.345, 1196.297 1000.266, 1248.968 838.500 C 1264.636 790.380, 1275.759 733.950, 1278.590 688.220 C 1278.974 682.016, 1279.674 676.702, 1280.144 676.411 C 1280.615 676.120, 1281 659.232, 1281 638.882 C 1281 618.504, 1280.614 602.121, 1280.141 602.413 C 1279.668 602.705, 1278.969 597.894, 1278.586 591.722 C 1276.911 564.650, 1272.327 533.418, 1265.346 501.500 C 1243.198 400.234, 1195.195 304.145, 1126.467 223.500 C 1110.196 204.407, 1075.888 170.111, 1056.500 153.557 C 1015.494 118.545, 974.015 91.137, 925 66.669 C 850.003 29.231, 774.683 8.340, 690.023 1.494 C 667.388 -0.336, 610.317 -0.308, 588.176 1.545 M 324.994 384.931 C 318.142 387.024, 313.759 390.640, 310.367 397 C 308.561 400.385, 308.500 407.452, 308.500 612.500 L 308.500 824.500 310.721 828.653 C 313.448 833.753, 318.852 838.339, 323.922 839.859 C 326.722 840.697, 380.831 841, 527.977 841 L 728.223 841 727.522 844.750 C 727.137 846.813, 723.292 863.350, 718.977 881.500 C 714.663 899.650, 707.953 927.887, 704.066 944.248 C 696.732 975.124, 695.917 980.856, 698.548 983.040 C 700.804 984.912, 704.837 982.724, 722.500 970.043 C 730.750 964.120, 774.540 932.662, 819.811 900.137 L 902.122 841 927.195 841 C 943.090 841, 953.663 840.582, 956.078 839.859 C 961.148 838.339, 966.552 833.753, 969.279 828.653 L 971.500 824.500 971.500 612.500 C 971.500 407.452, 971.439 400.385, 969.633 397 C 967.010 392.083, 964.135 389.147, 959.500 386.653 L 955.500 384.500 641.500 384.333 C 468.800 384.241, 326.372 384.510, 324.994 384.931 M 406.400 456.400 L 403 459.800 403 476.384 L 403 492.968 405.918 496.234 L 408.836 499.500 640 499.500 L 871.164 499.500 874.082 496.234 L 877 492.968 877 476.384 L 877 459.800 873.600 456.400 L 870.200 453 640 453 L 409.800 453 406.400 456.400 M 409.378 549.437 C 403.515 551.989, 403 553.751, 403 571.272 C 403 588.570, 403.749 591.653, 408.472 593.805 C 412.278 595.540, 867.722 595.540, 871.528 593.805 C 876.251 591.653, 877 588.570, 877 571.272 C 877 553.628, 876.491 551.939, 870.401 549.394 C 865.477 547.337, 414.108 547.379, 409.378 549.437 M 0.453 640 C 0.453 660.625, 0.586 669.063, 0.749 658.750 C 0.911 648.438, 0.911 631.563, 0.749 621.250 C 0.586 610.938, 0.453 619.375, 0.453 640 M 406.077 647.077 L 403 650.154 403 667.154 L 403 684.154 405.923 687.077 L 408.846 690 640 690 L 871.154 690 874.077 687.077 L 877 684.154 877 667.154 L 877 650.154 873.923 647.077 L 870.846 644 640 644 L 409.154 644 406.077 647.077" stroke="none" fill="#bcbcbc" fill-rule="evenodd"/></svg>