<svg xmlns="http://www.w3.org/2000/svg" width="512" height="512" viewBox="0 0 512 512" version="1.1"><path d="" stroke="none" fill="#787474" fill-rule="evenodd"/><path d="M 52.184 65.562 C 37.782 69.438, 26.513 81.253, 22.492 96.693 C 20.243 105.327, 20.243 406.673, 22.492 415.307 C 25.511 426.898, 32.815 436.772, 42.625 442.520 C 52.483 448.297, 40.900 448, 256 448 C 429.031 448, 454.301 447.812, 459.380 446.489 C 474.163 442.639, 485.425 430.982, 489.508 415.307 C 491.757 406.673, 491.757 105.327, 489.508 96.693 C 486.489 85.102, 479.185 75.228, 469.375 69.480 C 459.511 63.699, 471.183 63.994, 255.540 64.066 C 87.074 64.122, 56.706 64.345, 52.184 65.562 M 64 256 L 64 405 256 405 L 448 405 448 256 L 448 107 256 107 L 64 107 64 256 M 233.500 129.661 C 209.671 133.961, 186.209 145.888, 167.125 163.402 C 162.299 167.831, 150.012 183.449, 145.806 190.500 C 134.035 210.233, 128.006 232.418, 128.006 256 C 128.006 289.307, 139.967 319.340, 163.402 344.875 C 167.831 349.701, 183.449 361.988, 190.500 366.194 C 210.233 377.965, 232.418 383.994, 256 383.994 C 279.582 383.994, 301.767 377.965, 321.500 366.194 C 328.551 361.988, 344.169 349.701, 348.598 344.875 C 372.033 319.340, 383.994 289.307, 383.994 256 C 383.994 222.693, 372.033 192.660, 348.598 167.125 C 344.169 162.299, 328.551 150.012, 321.500 145.806 C 308.783 138.220, 292.283 132.131, 277.500 129.567 C 266.347 127.633, 244.482 127.680, 233.500 129.661 M 240.633 172.487 C 225.382 175.663, 214.699 180.609, 203.061 189.885 C 189.378 200.791, 178.378 217.572, 173.817 234.500 C 170.753 245.871, 170.757 266.155, 173.825 277.500 C 181.727 306.722, 205.278 330.273, 234.500 338.175 C 240.845 339.891, 245.292 340.338, 256 340.338 C 271.838 340.338, 280.707 338.380, 293.500 332.058 C 314.980 321.443, 331.870 300.817, 338.175 277.500 C 341.243 266.155, 341.247 245.871, 338.183 234.500 C 330.333 205.366, 306.333 181.402, 277.500 173.909 C 267.113 171.210, 249.948 170.548, 240.633 172.487 M 234.630 213.704 C 233.807 214.527, 233.807 297.473, 234.630 298.296 C 235.282 298.949, 298 257.088, 298 256 C 298 254.912, 235.282 213.051, 234.630 213.704" stroke="none" fill="#747474" fill-rule="evenodd"/></svg>