<svg xmlns="http://www.w3.org/2000/svg" width="50" height="50" viewBox="0 0 372 512" version="1.1"><path d="" stroke="none" fill="#080404" fill-rule="evenodd"/><path d="M 139.229 46.303 C 113.803 71.769, 93 92.943, 93 93.354 C 93 93.766, 100.460 101.577, 109.578 110.713 L 126.156 127.323 144.074 109.426 L 161.992 91.528 162.246 220.514 L 162.500 349.500 186 349.500 L 209.500 349.500 209.754 220.514 L 210.008 91.528 227.926 109.426 L 245.844 127.323 262.422 110.713 C 271.540 101.577, 279 93.766, 279 93.354 C 279 92.509, 186.842 -0, 186 -0 C 185.702 -0, 164.655 20.836, 139.229 46.303 M 38.568 163.159 C 23.801 165.998, 11.234 175.678, 4.422 189.461 L 0.500 197.396 0.500 336.448 C 0.500 468.611, 0.591 475.760, 2.330 480.748 C 6.221 491.908, 18.534 504.596, 30 509.262 L 35.500 511.500 181.500 511.781 C 274.178 511.959, 329.839 511.701, 333.903 511.073 C 343.032 509.664, 350.370 505.699, 358.034 498.034 C 365.115 490.954, 369.814 482.807, 370.722 476.038 C 371.023 473.790, 371.659 471.711, 372.135 471.417 C 372.615 471.120, 373 410.764, 373 335.882 C 373 246.137, 372.665 201.089, 372 201.500 C 371.420 201.858, 371 200.889, 371 199.193 C 371 194.371, 364.293 182.336, 358.222 176.265 C 351.713 169.756, 341.642 164.681, 331.957 163.029 C 327.853 162.330, 312.743 162.033, 290.500 162.214 L 255.500 162.500 255.232 186.250 L 254.964 210 289.982 210 L 325 210 325 337 L 325 464 186 464 L 47 464 47 337 L 47 210 82.018 210 L 117.036 210 116.768 186.250 L 116.500 162.500 80 162.356 C 59.925 162.276, 41.281 162.638, 38.568 163.159 M 0.486 337 C 0.486 411.525, 0.605 442.013, 0.750 404.750 C 0.895 367.488, 0.895 306.513, 0.750 269.250 C 0.605 231.988, 0.486 262.475, 0.486 337" stroke="none" fill="#040404" fill-rule="evenodd"/></svg>