<svg xmlns="http://www.w3.org/2000/svg" width="512" height="512" viewBox="0 0 512 512" version="1.1"><path d="" stroke="none" fill="#8c8c8c" fill-rule="evenodd"/><path d="M 45.108 75.082 C 28.318 78.379, 14.278 92.717, 11.021 109.891 C 9.617 117.293, 9.617 394.707, 11.021 402.109 C 14.356 419.696, 28.304 433.644, 45.891 436.979 C 53.331 438.390, 458.669 438.390, 466.109 436.979 C 483.696 433.644, 497.644 419.696, 500.979 402.109 C 502.383 394.707, 502.383 117.293, 500.979 109.891 C 497.644 92.304, 483.696 78.356, 466.109 75.021 C 459.417 73.752, 51.580 73.811, 45.108 75.082 M 47.107 97.504 C 41.048 99.393, 35.298 105.259, 33.470 111.414 C 31.277 118.798, 31.257 393.214, 33.449 400.497 C 35.398 406.973, 41.032 412.635, 47.414 414.530 C 54.882 416.748, 457.118 416.748, 464.586 414.530 C 470.968 412.635, 476.602 406.973, 478.551 400.497 C 480.725 393.272, 480.725 118.728, 478.551 111.503 C 476.602 105.027, 470.968 99.365, 464.586 97.470 C 457.416 95.340, 53.939 95.373, 47.107 97.504 M 295.758 119.422 C 267.873 129.263, 257.442 162.349, 274.954 185.411 C 294.813 211.566, 333.130 207.796, 348.147 178.210 C 351.379 171.843, 351.500 171.185, 351.500 160 C 351.500 148.815, 351.379 148.157, 348.147 141.790 C 337.940 121.681, 315.955 112.293, 295.758 119.422 M 299.934 141.750 C 292.459 145.539, 288.667 151.682, 288.667 160 C 288.667 168.318, 292.459 174.461, 299.934 178.250 C 311.038 183.879, 322.249 180.112, 328.087 168.790 C 333.185 158.902, 328.236 145.736, 317.605 140.908 C 311.746 138.247, 306.335 138.505, 299.934 141.750 M 197.500 214.257 C 196.400 214.972, 163.438 247.730, 124.250 287.052 C 58.961 352.565, 53 358.821, 53 361.823 C 53 369.051, 59.025 374.781, 65.373 373.590 C 67.860 373.123, 82.272 359.232, 135.496 306.004 L 202.489 239.006 280.509 317.003 C 352.195 388.667, 358.797 395, 361.815 395 C 366.364 395, 370.667 392.545, 372.572 388.862 C 375.701 382.809, 374.507 380.986, 353.999 360.499 L 335 341.519 354.242 322.257 L 373.485 302.996 408.493 337.980 C 435.463 364.932, 444.214 373.105, 446.612 373.579 C 452.920 374.827, 459 369.065, 459 361.839 C 459 358.886, 455.341 354.890, 420.250 319.516 C 398.938 298.032, 380.216 279.624, 378.646 278.610 C 376.679 277.337, 374.661 276.917, 372.146 277.256 C 368.951 277.688, 365.504 280.762, 344.264 302.124 L 320.028 326.500 263.764 270.132 C 210.393 216.662, 207.294 213.743, 203.500 213.361 C 201.229 213.132, 198.636 213.519, 197.500 214.257" stroke="none" fill="#848484" fill-rule="evenodd"/></svg>