<?xml version="1.0" standalone="no"?>
<!DOCTYPE svg PUBLIC "-//W3C//DTD SVG 20010904//EN"
 "http://www.w3.org/TR/2001/REC-SVG-20010904/DTD/svg10.dtd">
<svg version="1.0" xmlns="http://www.w3.org/2000/svg"
 width="720.000000pt" height="469.000000pt" viewBox="0 0 720.000000 469.000000"
 preserveAspectRatio="xMidYMid meet">

<g transform="translate(0.000000,469.000000) scale(0.100000,-0.100000)"
fill="#000000" stroke="none">
<path d="M0 2345 l0 -2345 3600 0 3600 0 0 2345 0 2345 -3600 0 -3600 0 0
-2345z m3448 1282 c6 -5 12 -31 12 -58 0 -41 -4 -51 -26 -66 -24 -15 -29 -15
-53 -2 -23 13 -26 21 -26 69 0 47 3 56 24 66 24 12 45 9 69 -9z m446 -13 c21
-21 21 -92 -1 -116 -9 -10 -30 -18 -47 -18 -26 0 -45 -13 -104 -73 l-72 -72
78 -78 77 -77 78 78 c62 62 77 83 77 107 0 44 25 75 60 75 41 0 60 -24 60 -75
0 -36 -5 -48 -25 -61 -16 -11 -34 -14 -52 -9 -23 5 -35 -3 -100 -67 l-73 -73
87 -87 88 -88 77 77 c75 75 78 79 78 125 0 37 4 50 19 58 52 27 91 0 91 -64 0
-51 -25 -79 -64 -74 -20 2 -40 -12 -101 -72 l-75 -75 77 -77 78 -78 77 77 c63
63 78 83 78 108 0 44 25 75 60 75 41 0 60 -24 60 -75 0 -36 -5 -48 -25 -61
-16 -11 -34 -14 -52 -9 -23 5 -35 -3 -99 -66 l-73 -72 50 -59 c42 -48 48 -59
34 -64 -11 -5 -32 8 -66 42 l-49 49 -75 -75 -75 -75 51 -57 c42 -48 48 -59 34
-64 -11 -5 -32 8 -66 42 l-49 48 -85 -84 -84 -84 51 -54 c35 -37 47 -57 40
-64 -7 -7 -26 2 -61 32 -28 24 -51 48 -51 54 0 6 -36 -25 -80 -69 l-79 -79 51
-54 c35 -38 47 -57 40 -64 -8 -8 -27 3 -66 37 l-55 47 -28 -20 c-15 -11 -56
-49 -90 -84 -57 -58 -62 -67 -65 -113 -3 -44 -6 -51 -30 -59 -18 -7 -35 -6
-53 2 -22 10 -25 18 -25 60 0 57 24 87 64 80 20 -4 39 10 110 81 l85 86 -80
74 -81 74 -89 -89 c-80 -80 -89 -92 -89 -126 0 -27 -6 -40 -19 -48 -51 -26
-91 2 -91 65 0 55 26 80 72 71 31 -6 38 -1 113 74 l80 80 -85 85 -85 85 -87
-87 c-83 -83 -88 -90 -88 -130 0 -32 -5 -45 -19 -53 -52 -27 -91 0 -91 64 0
54 26 81 68 73 26 -5 37 3 110 76 l80 82 -73 80 -74 80 -94 -90 c-84 -80 -94
-94 -96 -127 -1 -39 -21 -58 -60 -58 -32 0 -51 27 -51 75 0 37 5 47 26 62 21
13 32 14 54 6 27 -10 32 -6 111 73 l83 84 -58 59 c-43 43 -57 64 -52 77 7 18
6 19 106 -73 l36 -33 74 75 74 74 -57 60 c-31 33 -57 64 -57 70 0 26 21 15 81
-39 l64 -58 82 80 82 81 -55 62 c-30 34 -54 67 -54 74 0 24 27 9 82 -46 l58
-57 75 74 75 74 -33 36 c-91 99 -91 99 -74 106 11 4 36 -12 79 -50 l62 -57 78
78 c75 75 78 79 78 125 0 34 5 50 18 57 25 15 58 13 76 -5z m-636 -176 c7 -7
12 -35 12 -64 0 -48 -2 -52 -30 -64 -25 -10 -34 -10 -55 4 -21 14 -25 24 -25
66 0 36 5 52 18 59 23 14 65 14 80 -1z m-190 -190 c7 -7 12 -35 12 -63 0 -46
-3 -53 -26 -64 -20 -9 -32 -8 -52 1 -23 11 -27 20 -30 61 -2 27 2 55 9 63 14
17 70 19 87 2z m-200 -184 c18 -12 22 -25 22 -68 0 -58 -7 -66 -60 -66 -39 0
-52 21 -48 76 2 40 7 51 28 61 32 16 31 16 58 -3z m1594 -451 c27 -24 25 -97
-4 -117 -48 -34 -98 -3 -98 61 0 64 58 96 102 56z m-188 -189 c25 -25 21 -99
-6 -118 -29 -20 -47 -20 -70 1 -21 19 -25 102 -6 121 17 17 64 15 82 -4z
m-192 -191 c12 -11 18 -30 18 -59 0 -35 -5 -47 -25 -60 -49 -32 -95 3 -95 72
0 52 64 82 102 47z m-184 -185 c7 -7 12 -32 12 -57 0 -68 -39 -98 -91 -71 -15
9 -19 22 -19 63 0 61 12 77 55 77 17 0 36 -5 43 -12z m212 -418 c43 -12 130
-65 130 -80 0 -5 -19 -23 -41 -40 l-41 -30 -29 21 c-63 44 -147 49 -169 9 -22
-42 -5 -52 140 -79 110 -21 150 -59 150 -142 0 -74 -54 -138 -133 -160 -61
-16 -183 -7 -232 18 -39 20 -93 69 -84 77 2 2 24 15 47 30 40 25 45 26 61 12
27 -25 87 -46 129 -46 38 0 92 30 92 51 0 18 -41 49 -66 49 -54 0 -165 32
-194 57 -55 46 -59 145 -8 200 51 56 157 78 248 53z m-990 -46 l0 -45 -52 3
-53 3 -3 43 -3 42 55 0 56 0 0 -46z m2130 6 l0 -40 -50 0 -50 0 0 40 0 40 50
0 50 0 0 -40z m-3230 -45 l0 -55 35 0 c32 0 35 -2 35 -30 0 -28 -3 -30 -35
-30 l-36 0 3 -107 3 -108 28 -3 c24 -3 27 -7 27 -43 0 -39 0 -39 -40 -39 -56
0 -108 23 -115 52 -3 13 -6 73 -8 133 -2 106 -3 110 -24 113 -17 2 -23 10 -23
27 0 17 6 25 23 27 19 3 22 10 25 61 l3 57 49 0 50 0 0 -55z m369 -45 c75 -21
124 -94 125 -185 1 -48 -4 -69 -26 -106 -73 -124 -290 -113 -344 18 -18 42
-18 135 0 176 35 83 144 126 245 97z m454 -4 c112 -46 139 -236 48 -328 -46
-45 -96 -57 -151 -35 l-39 15 -3 -71 -3 -72 -52 -3 -53 -3 0 250 0 251 45 0
c35 0 45 -4 45 -16 0 -15 2 -15 23 -1 44 28 93 33 140 13z m616 1 c62 -22 70
-44 73 -215 l3 -152 -52 0 c-29 0 -53 5 -55 11 -3 8 -14 7 -35 -5 -64 -33
-141 -17 -173 36 -52 86 2 162 135 189 62 12 66 14 63 38 -2 21 -9 27 -35 29
-24 2 -35 -2 -45 -17 -10 -17 -23 -21 -65 -21 -50 0 -53 1 -53 26 0 30 48 80
83 87 44 9 123 6 156 -6z m1124 -1 c75 -31 125 -132 108 -221 -9 -50 -22 -73
-58 -106 -69 -64 -205 -65 -277 -1 -69 61 -73 212 -8 286 45 50 165 72 235 42z
m397 4 c20 -5 51 -25 69 -44 l32 -33 -36 -23 -36 -22 -25 22 c-26 26 -74 31
-98 11 -35 -29 -43 -132 -13 -172 13 -17 50 -39 66 -39 5 0 24 12 41 27 31 25
32 26 66 10 19 -9 34 -21 34 -26 0 -17 -81 -79 -112 -85 -71 -14 -139 5 -180
51 -47 51 -60 137 -33 214 20 55 40 77 90 100 45 21 84 23 135 9z m-1860 -185
l0 -185 -55 0 -55 0 0 185 0 185 55 0 55 0 0 -185z m2114 179 c14 -5 16 -31
16 -185 l0 -179 -50 0 -50 0 0 185 0 185 34 0 c19 0 41 -3 50 -6z m196 -49 c0
-45 0 -45 -35 -45 -27 0 -35 4 -35 18 0 26 40 68 68 72 1 0 2 -20 2 -45z m-3
-312 c-11 -10 -58 20 -72 46 -30 58 -16 108 38 141 l32 20 3 -101 c1 -56 1
-103 -1 -106z"/>
<path d="M3561 3226 l-74 -75 79 -75 79 -75 72 71 72 71 -71 79 c-39 43 -74
78 -77 78 -4 0 -40 -33 -80 -74z"/>
<path d="M3372 3037 l-82 -82 78 -78 77 -77 83 83 82 82 -78 78 -77 77 -83
-83z"/>
<path d="M3742 3047 l-72 -72 88 -88 87 -87 73 73 72 72 -88 88 -87 87 -73
-73z"/>
<path d="M3552 2857 l-83 -84 86 -81 c48 -45 90 -82 93 -82 4 0 42 35 85 78
l77 77 -88 88 -87 87 -83 -83z"/>
<path d="M3182 2847 l-72 -72 78 -78 77 -77 72 72 72 71 -71 79 c-39 43 -74
78 -77 78 -4 0 -39 -33 -79 -73z"/>
<path d="M3942 2847 l-72 -72 78 -78 77 -77 75 75 c73 74 74 75 55 93 -11 10
-47 44 -81 75 l-60 56 -72 -72z"/>
<path d="M3362 2667 l-72 -72 85 -85 85 -85 72 73 73 72 -85 85 -85 85 -73
-73z"/>
<path d="M3754 2659 l-79 -79 75 -80 75 -80 82 82 c46 46 83 85 83 89 0 3 -35
38 -78 77 l-79 71 -79 -80z"/>
<path d="M3557 2471 l-72 -70 80 -80 80 -81 75 75 75 75 -75 75 c-41 41 -78
75 -82 75 -5 0 -41 -31 -81 -69z"/>
<path d="M2272 1413 c-19 -7 -42 -58 -42 -93 0 -85 58 -134 125 -106 26 11 37
24 46 54 24 82 -12 153 -79 151 -20 0 -43 -3 -50 -6z"/>
<path d="M2725 1407 c-53 -45 -43 -173 15 -197 36 -15 64 -1 86 42 23 44 14
121 -16 153 -29 31 -51 31 -85 2z"/>
<path d="M3363 1284 c-49 -18 -66 -50 -37 -71 34 -25 94 15 94 63 0 27 -1 28
-57 8z"/>
<path d="M4441 1401 c-40 -40 -38 -134 2 -171 30 -28 82 -26 112 5 21 20 25
34 25 80 0 46 -4 60 -25 80 -30 31 -86 34 -114 6z"/>
</g>
</svg>
