<?xml version="1.0" standalone="no"?>
<!DOCTYPE svg PUBLIC "-//W3C//DTD SVG 20010904//EN"
 "http://www.w3.org/TR/2001/REC-SVG-20010904/DTD/svg10.dtd">
<svg version="1.0" xmlns="http://www.w3.org/2000/svg"
 width="480.000000pt" height="480.000000pt" viewBox="0 0 480.000000 480.000000"
 preserveAspectRatio="xMidYMid meet">

<g transform="translate(0.000000,480.000000) scale(0.100000,-0.100000)"
fill="#000000" stroke="none">
<path d="M0 2400 l0 -2400 2400 0 2400 0 0 2400 0 2400 -2400 0 -2400 0 0
-2400z m1920 2035 c58 -30 70 -58 70 -164 0 -109 -10 -134 -66 -157 -68 -29
-141 -12 -183 42 -18 23 -21 40 -21 123 0 76 4 100 18 117 40 50 125 69 182
39z m1070 -33 c49 -26 70 -72 70 -155 0 -129 -47 -182 -156 -174 l-62 5 -176
-177 c-97 -97 -176 -179 -176 -182 0 -3 82 -87 183 -187 l182 -182 188 188
187 187 0 86 c0 78 2 89 25 113 58 63 162 63 220 0 23 -25 25 -35 25 -125 0
-90 -2 -100 -26 -128 -36 -43 -91 -58 -156 -42 l-50 13 -177 -176 -176 -176
200 -200 c110 -110 204 -200 210 -200 5 0 87 78 182 172 l173 173 0 101 c0 88
3 105 21 128 56 71 163 76 224 10 23 -25 25 -34 25 -128 0 -113 -8 -134 -63
-162 -23 -12 -46 -15 -92 -11 l-61 6 -177 -177 -177 -177 184 -185 185 -185
190 189 191 189 0 81 c1 87 8 105 57 138 40 26 118 24 159 -4 46 -31 54 -56
54 -157 0 -75 -3 -92 -22 -116 -41 -52 -121 -69 -180 -39 l-31 16 -191 -192
c-105 -106 -185 -189 -178 -185 15 8 62 -34 174 -157 l70 -77 -27 -27 c-33
-32 -34 -32 -176 104 l-105 101 -180 -180 c-148 -149 -176 -182 -163 -189 9
-6 63 -59 118 -120 l102 -111 -18 -29 c-9 -17 -23 -30 -30 -30 -6 0 -64 50
-128 112 -81 78 -114 116 -110 127 3 9 -89 -78 -204 -193 l-210 -210 110 -113
c107 -112 139 -153 120 -153 -5 0 -17 -8 -26 -17 -23 -22 -36 -13 -165 106
-72 67 -99 98 -95 110 3 9 -79 -69 -184 -173 l-189 -189 23 -19 c13 -10 67
-66 120 -124 l97 -106 -23 -24 c-12 -13 -27 -24 -34 -24 -6 0 -65 52 -131 115
l-121 114 -28 -29 c-16 -17 -34 -30 -40 -30 -6 0 -88 -78 -183 -173 l-172
-173 0 -98 c0 -97 0 -98 -33 -131 -59 -59 -159 -56 -212 6 -23 28 -25 38 -25
129 0 96 1 99 30 129 34 34 71 44 147 39 l52 -3 200 199 c111 110 201 201 201
203 0 2 -6 3 -12 3 -7 0 -93 80 -190 177 l-178 178 -211 -210 -212 -210 -1
-78 c-1 -75 -3 -80 -33 -107 -18 -16 -50 -34 -72 -41 -54 -16 -124 9 -152 55
-22 36 -27 178 -7 221 27 61 122 84 200 49 l40 -18 195 199 195 198 -203 203
-204 204 -206 -203 -206 -202 -1 -92 c-2 -83 -5 -94 -28 -122 -52 -63 -152
-65 -211 -6 -33 33 -33 33 -33 133 0 91 2 101 25 126 41 44 110 59 171 36 27
-11 34 -5 226 187 109 109 197 201 196 205 -2 4 -84 89 -183 188 l-179 181
-206 -206 c-113 -113 -209 -203 -213 -199 -4 4 -7 -26 -7 -67 0 -88 -20 -133
-71 -161 -64 -34 -144 -18 -188 38 -18 23 -21 41 -21 119 0 80 3 96 22 120 43
55 125 70 192 34 l39 -21 200 200 201 201 -143 147 -142 147 27 28 c20 21 31
26 43 19 9 -5 77 -68 151 -139 l135 -131 177 178 176 177 -130 135 c-71 74
-134 142 -138 151 -7 12 -2 23 19 43 l28 27 146 -141 145 -140 194 196 c106
107 195 197 196 199 2 2 -43 52 -101 112 -58 59 -119 126 -137 147 l-31 40 25
25 25 24 33 -26 c18 -14 85 -75 148 -135 l115 -110 180 176 180 176 -137 139
c-76 76 -138 144 -138 151 0 7 11 23 24 35 l24 23 114 -104 c62 -56 127 -115
144 -129 17 -14 33 -32 36 -40 4 -9 66 46 188 167 l183 181 -2 103 c-2 79 2
107 14 126 40 61 128 81 195 46z m-1527 -416 c18 -7 43 -25 56 -39 22 -24 24
-36 25 -126 1 -86 -2 -102 -19 -121 -63 -70 -177 -67 -234 6 -18 22 -21 41
-21 111 0 91 13 130 52 155 45 29 94 34 141 14z m-443 -451 c58 -30 70 -58 70
-164 0 -110 -10 -132 -67 -156 -69 -29 -139 -13 -182 41 -18 23 -21 41 -21
118 0 68 4 97 16 115 40 56 124 77 184 46z m-435 -454 c45 -25 65 -74 65 -158
0 -89 -9 -115 -53 -142 -52 -32 -91 -36 -143 -16 -67 25 -84 59 -84 167 0 82
2 90 28 118 31 35 96 61 132 53 14 -3 39 -13 55 -22z m3745 -1046 c58 -30 70
-58 70 -161 0 -85 -2 -95 -26 -123 -51 -61 -146 -65 -209 -9 l-35 30 0 100 c0
54 5 108 11 119 28 52 128 76 189 44z m-438 -451 c49 -25 58 -50 58 -155 0
-109 -14 -139 -76 -165 -45 -19 -78 -18 -123 5 -60 31 -71 56 -71 165 0 86 2
97 25 124 41 49 120 60 187 26z m-462 -449 c57 -30 70 -58 70 -160 0 -102 -13
-130 -70 -160 -59 -31 -137 -13 -179 41 -18 23 -21 40 -21 123 0 72 4 102 16
119 33 47 128 66 184 37z m-459 -439 c19 -8 45 -26 59 -41 22 -23 25 -37 28
-113 2 -69 -1 -94 -15 -121 -46 -87 -179 -95 -242 -15 -18 23 -21 41 -21 121
0 110 14 144 69 167 46 19 80 20 122 2z"/>
<path d="M2380 3614 c-19 -16 -102 -95 -184 -176 l-151 -148 145 -145 c80 -80
149 -145 154 -145 6 0 27 -17 48 -37 l38 -37 170 169 c94 93 170 172 169 175
0 3 -80 88 -178 189 l-178 184 -33 -29z"/>
<path d="M1773 3018 c-108 -108 -195 -199 -192 -200 3 -2 87 -84 187 -183
l182 -180 190 190 c105 104 190 194 190 200 0 5 -81 91 -180 190 l-179 181
-198 -198z"/>
<path d="M2662 3037 l-172 -172 202 -203 c111 -111 205 -202 208 -202 3 0 82
76 175 170 l170 170 -200 203 c-110 112 -202 205 -205 205 -3 1 -83 -76 -178
-171z"/>
<path d="M2376 2755 c-20 -16 -110 -104 -201 -195 l-166 -165 206 -202 c114
-112 210 -203 213 -203 4 0 94 87 199 193 l193 192 -205 205 -204 205 -35 -30z"/>
<path d="M1332 2577 c-95 -95 -172 -177 -172 -183 0 -6 82 -91 182 -189 l181
-177 173 174 172 173 -182 187 -182 187 -172 -172z"/>
<path d="M3127 2572 c-92 -92 -167 -169 -167 -172 0 -5 34 -40 276 -291 l83
-85 183 183 c100 101 178 183 172 183 -6 0 -93 79 -192 175 -99 96 -182 175
-184 175 -2 0 -79 -75 -171 -168z"/>
<path d="M1758 2143 l-173 -173 202 -203 203 -203 173 174 173 173 -102 101
c-56 55 -147 146 -203 202 l-100 102 -173 -173z"/>
<path d="M2681 2124 l-195 -195 176 -177 c97 -97 177 -183 179 -190 2 -6 94
79 204 190 l201 203 -186 183 -185 182 -194 -196z"/>
<path d="M2359 1803 c-29 -23 -112 -101 -184 -173 l-130 -131 181 -177 c99
-98 183 -183 185 -190 2 -7 86 70 187 171 l183 183 -132 129 c-73 72 -155 153
-184 180 l-51 50 -55 -42z"/>
</g>
</svg>
